<svg xmlns="http://www.w3.org/2000/svg" width="960" height="620" font-family="Segoe UI,Roboto,Helvetica,Arial,sans-serif">
  <!-- Browser chrome -->
  <rect width="960" height="620" fill="#dee1e6"/>
  <rect x="0" y="0" width="960" height="76" fill="#f1f3f4"/>
  <!-- tab bar -->
  <rect x="8" y="8" width="220" height="32" rx="8" fill="#ffffff"/>
  <circle cx="26" cy="24" r="6" fill="#fbbc05"/>
  <text x="40" y="29" font-size="13" fill="#202124">LuCI - uartrecon</text>
  <circle cx="205" cy="24" r="6" fill="#dadce0"/>
  <!-- url bar -->
  <rect x="8" y="46" width="944" height="24" rx="12" fill="#ffffff"/>
  <text x="24" y="63" font-size="12" fill="#5f6368">🔒</text>
  <text x="44" y="63" font-size="13" fill="#202124">192.168.1.1/cgi-bin/luci</text>

  <!-- Page: LuCI header -->
  <rect x="0" y="76" width="960" height="52" fill="#2d3e50"/>
  <text x="24" y="108" font-size="22" font-weight="700" fill="#ffffff">LEDE</text>
  <text x="110" y="108" font-size="13" fill="#b8c7d9">uartrecon</text>
  <!-- right menu -->
  <text x="720" y="108" font-size="13" fill="#d7e3f0">System ▾</text>
  <text x="800" y="108" font-size="13" fill="#d7e3f0">Network ▾</text>
  <text x="900" y="108" font-size="13" fill="#d7e3f0">Logout</text>

  <!-- Sidebar -->
  <rect x="0" y="128" width="220" height="492" fill="#35495e"/>
  <text x="20" y="158" font-size="13" fill="#8fa9c2">STATUS</text>
  <rect x="0" y="168" width="220" height="34" fill="#1e2b38"/>
  <text x="28" y="190" font-size="14" fill="#ffffff">▸ Overview</text>
  <text x="28" y="222" font-size="14" fill="#dbe7f3">  Routes</text>
  <text x="28" y="248" font-size="14" fill="#dbe7f3">  System Log</text>
  <text x="28" y="274" font-size="14" fill="#dbe7f3">  Kernel Log</text>
  <text x="20" y="306" font-size="13" fill="#8fa9c2">SYSTEM</text>
  <text x="28" y="330" font-size="14" fill="#dbe7f3">  System</text>
  <text x="28" y="356" font-size="14" fill="#dbe7f3">  Administration</text>
  <text x="28" y="382" font-size="14" fill="#dbe7f3">  Software</text>
  <text x="28" y="408" font-size="14" fill="#dbe7f3">  Startup</text>
  <text x="28" y="434" font-size="14" fill="#dbe7f3">  Reboot</text>
  <text x="20" y="466" font-size="13" fill="#8fa9c2">NETWORK</text>
  <text x="28" y="490" font-size="14" fill="#dbe7f3">  Interfaces</text>
  <text x="28" y="516" font-size="14" fill="#dbe7f3">  Wireless</text>
  <text x="28" y="542" font-size="14" fill="#dbe7f3">  Firewall</text>
  <text x="28" y="568" font-size="14" fill="#dbe7f3">  DHCP and DNS</text>

  <!-- Content -->
  <rect x="220" y="128" width="740" height="492" fill="#f9f9f9"/>
  <text x="248" y="172" font-size="24" font-weight="600" fill="#2d3e50">Status Overview</text>

  <!-- System info table -->
  <rect x="248" y="196" width="686" height="130" rx="4" fill="#ffffff" stroke="#e0e0e0"/>
  <text x="266" y="226" font-size="14" font-weight="600" fill="#2d3e50">System</text>
  <line x1="248" y1="238" x2="934" y2="238" stroke="#eeeeee"/>
  <text x="266" y="260" font-size="13" fill="#666666">Hostname</text>
  <text x="420" y="260" font-size="13" fill="#202124">uartrecon</text>
  <text x="266" y="284" font-size="13" fill="#666666">Model</text>
  <text x="420" y="284" font-size="13" fill="#202124">ZTE B700V5S1 (MediaTek MT8653)</text>
  <text x="266" y="308" font-size="13" fill="#666666">Firmware Version</text>
  <text x="420" y="308" font-size="13" fill="#202124">LEDE Reboot 17.01.6 r3979-2252731af4</text>

  <!-- Memory bar -->
  <rect x="248" y="344" width="686" height="110" rx="4" fill="#ffffff" stroke="#e0e0e0"/>
  <text x="266" y="372" font-size="14" font-weight="600" fill="#2d3e50">Memory</text>
  <line x1="248" y1="384" x2="934" y2="384" stroke="#eeeeee"/>
  <text x="266" y="406" font-size="13" fill="#666666">Total Available</text>
  <text x="420" y="406" font-size="13" fill="#202124">180.2 MB / 512 MB</text>
  <rect x="266" y="418" width="600" height="14" rx="7" fill="#e8f5e9"/>
  <rect x="266" y="418" width="40" height="14" rx="7" fill="#4caf50"/>

  <!-- Network bar -->
  <rect x="248" y="472" width="686" height="110" rx="4" fill="#ffffff" stroke="#e0e0e0"/>
  <text x="266" y="500" font-size="14" font-weight="600" fill="#2d3e50">Network</text>
  <line x1="248" y1="512" x2="934" y2="512" stroke="#eeeeee"/>
  <text x="266" y="534" font-size="13" fill="#666666">Interface</text>
  <text x="420" y="534" font-size="13" fill="#202124">eth0 (LAN) - 192.168.1.1</text>
  <text x="266" y="558" font-size="13" fill="#666666">MAC Address</text>
  <text x="420" y="558" font-size="13" fill="#202124">74:97:81:B6:31:79</text>

  <!-- Footer -->
  <text x="248" y="606" font-size="11" fill="#999999">Powered by LuCI lede-17.01 branch · LEDE 17.01.6</text>
</svg>
